HIERARCHY
ROOT Character1_Hips
{
  OFFSET 268.997 91.2904 -24.0085
  CHANNELS 6 Xposition Yposition Zposition Zrotation Xrotation Yrotation
  JOINT Character1_Spine
  {
    OFFSET 0 8.754 -1.339
    CHANNELS 3 Zrotation Xrotation Yrotation
    JOINT Character1_Spine1
    {
      OFFSET 0 10.855 -0.645001
      CHANNELS 3 Zrotation Xrotation Yrotation
      JOINT Character1_LeftShoulder
      {
        OFFSET 1.467 27.745 1.178
        CHANNELS 3 Zrotation Xrotation Yrotation
        JOINT Character1_LeftArm
        {
          OFFSET 18.486 -1.858 0.275
          CHANNELS 3 Zrotation Xrotation Yrotation
          JOINT Character1_LeftForeArm
          {
            OFFSET 31.798 2.35985 2.92113
            CHANNELS 3 Zrotation Xrotation Yrotation
            JOINT Character1_LeftHand
            {
              OFFSET 29.001 1.642 2.11199
              CHANNELS 3 Zrotation Xrotation Yrotation
              End Site
              {
                OFFSET 0.269758 0.141128 0.89614
              }
            }
            JOINT L_Radius_RIGMESH
            {
              OFFSET 0.592911 0.209926 -0.435177
              CHANNELS 3 Zrotation Xrotation Yrotation
              End Site
              {
                OFFSET 0 0 0
              }
            }
          }
          JOINT L_Humerus_RIGMESH
          {
            OFFSET 0.000383861 -0.000257932 -6.47351e-005
            CHANNELS 3 Zrotation Xrotation Yrotation
            End Site
            {
              OFFSET 0 0 0
            }
          }
        }
        JOINT L_Shoulder_RIGMESH
        {
          OFFSET 3.24498e-005 -0.000608592 -0.000527677
          CHANNELS 3 Zrotation Xrotation Yrotation
          End Site
          {
            OFFSET 0 0 0
          }
        }
      }
      JOINT Character1_RightShoulder
      {
        OFFSET -1.467 27.745 1.178
        CHANNELS 3 Zrotation Xrotation Yrotation
        JOINT Character1_RightArm
        {
          OFFSET -18.486 -1.858 0.275
          CHANNELS 3 Zrotation Xrotation Yrotation
          JOINT Character1_RightForeArm
          {
            OFFSET -31.798 2.3598 2.92067
            CHANNELS 3 Zrotation Xrotation Yrotation
            JOINT Character1_RightHand
            {
              OFFSET -29.0007 1.64167 2.112
              CHANNELS 3 Zrotation Xrotation Yrotation
              End Site
              {
                OFFSET 161.773 0.141827 0.896322
              }
            }
            JOINT R_Radius_RIGMESH
            {
              OFFSET 104.095 0.21029 -0.434995
              CHANNELS 3 Zrotation Xrotation Yrotation
              End Site
              {
                OFFSET 0 0 0
              }
            }
          }
          JOINT R_Humerus_RIGMESH
          {
            OFFSET 39.9064 -0.000257932 -6.47351e-005
            CHANNELS 3 Zrotation Xrotation Yrotation
            End Site
            {
              OFFSET 0 0 0
            }
          }
        }
        JOINT R_Shoulder_RIGMESH
        {
          OFFSET -3.24498e-005 -0.000608592 -0.000527677
          CHANNELS 3 Zrotation Xrotation Yrotation
          End Site
          {
            OFFSET 0 0 0
          }
        }
      }
      JOINT Character1_Neck
      {
        OFFSET 0 30.836 0.626
        CHANNELS 3 Zrotation Xrotation Yrotation
        JOINT Character1_Head
        {
          OFFSET 0 8.074 3.498
          CHANNELS 3 Zrotation Xrotation Yrotation
          End Site
          {
            OFFSET 0 -0.00153379 1.54668e-005
          }
        }
        JOINT Neck_RIGMESH
        {
          OFFSET -0.693804 0.348383 -1.3675
          CHANNELS 3 Zrotation Xrotation Yrotation
          End Site
          {
            OFFSET 0 0 0
          }
        }
      }
      JOINT Torso_RIGMESH
      {
        OFFSET 0 -0.000828813 -0.000380861
        CHANNELS 3 Zrotation Xrotation Yrotation
        End Site
        {
          OFFSET 0 0 0
        }
      }
    }
    JOINT Spine_RIGMESH
    {
      OFFSET 0.0299463 -0.029689 -0.129357
      CHANNELS 3 Zrotation Xrotation Yrotation
      End Site
      {
        OFFSET 0 0 0
      }
    }
  }
  JOINT Character1_RightUpLeg
  {
    OFFSET -9.035 -4.63425 1.845
    CHANNELS 3 Zrotation Xrotation Yrotation
    JOINT Character1_RightLeg
    {
      OFFSET -0.919513 -40.345 1.15533
      CHANNELS 3 Zrotation Xrotation Yrotation
      JOINT Character1_RightFoot
      {
        OFFSET 1.95452 -45.2655 -4.18888
        CHANNELS 3 Zrotation Xrotation Yrotation
        JOINT Character1_RightToeBase
        {
          OFFSET 1.87056 -6.69517 14.7145
          CHANNELS 3 Zrotation Xrotation Yrotation
          End Site
          {
            OFFSET 0 0 0
          }
        }
        JOINT R_Talus_RIGMESH
        {
          OFFSET 8 -7.75529 4.18888
          CHANNELS 3 Zrotation Xrotation Yrotation
          End Site
          {
            OFFSET 0 0 0
          }
        }
      }
      JOINT R_Tibia_RIGMESH
      {
        OFFSET 0 0 0
        CHANNELS 3 Zrotation Xrotation Yrotation
        End Site
        {
          OFFSET 0 0 0
        }
      }
    }
    JOINT R_Femur_RIGMESH
    {
      OFFSET 0 0 0
      CHANNELS 3 Zrotation Xrotation Yrotation
      End Site
      {
        OFFSET 0 0 0
      }
    }
  }
  JOINT Character1_LeftUpLeg
  {
    OFFSET 9.035 -4.63425 1.845
    CHANNELS 3 Zrotation Xrotation Yrotation
    JOINT Character1_LeftLeg
    {
      OFFSET 0.919443 -40.3447 1.16323
      CHANNELS 3 Zrotation Xrotation Yrotation
      JOINT Character1_LeftFoot
      {
        OFFSET -1.95452 -45.2655 -4.18888
        CHANNELS 3 Zrotation Xrotation Yrotation
        JOINT Character1_LeftToeBase
        {
          OFFSET -1.87056 -6.69517 14.7145
          CHANNELS 3 Zrotation Xrotation Yrotation
          End Site
          {
            OFFSET 0 0 0
          }
        }
        JOINT L_Talus_RIGMESH
        {
          OFFSET -8 -7.75529 4.18888
          CHANNELS 3 Zrotation Xrotation Yrotation
          End Site
          {
            OFFSET 0 0 0
          }
        }
      }
      JOINT L_Tibia_RIGMESH
      {
        OFFSET 0 0 0
        CHANNELS 3 Zrotation Xrotation Yrotation
        End Site
        {
          OFFSET 0 0 0
        }
      }
    }
    JOINT L_Femur_RIGMESH
    {
      OFFSET 0 0 0
      CHANNELS 3 Zrotation Xrotation Yrotation
      End Site
      {
        OFFSET 0 0 0
      }
    }
  }
  JOINT Pelvis_RIGMESH
  {
    OFFSET 0 0 0
    CHANNELS 3 Zrotation Xrotation Yrotation
    End Site
    {
      OFFSET 0 0 0
    }
  }
}
MOTION
Frames:	9
Frame Time:	0.00833333
141.89 105.656 -12.4305 -164.04 28.1852 158.32 0 0 -0 -1.30521 -5.59801 -7.49863 24.8991 -9.14485 -4.35914 0.627517 -37.7112 -44.1673 -0.464147 0.618812 -40.837 94.5135 16.6525 -25.7457 -9.93923e-016 1.59028e-015 5.76476e-015 -2.64834e-031 -4.77083e-015 -3.18055e-015 1.59028e-015 3.18055e-015 3.18055e-015 -18.8993 -35.5843 5.85475 36.9244 -10.2868 48.7451 0.792145 1.34164 32.5898 -106.112 0.615253 5.23026 0 3.97569e-016 -0 1.59028e-015 0 -3.97569e-015 9.54166e-015 -3.18055e-015 -0 0 0 -0 2.13164 -24.6114 -18.5119 0.482214 14.9473 -10.2097 0 0 -0 -5.49489 9.86905 2.93401 -51.4536 -53.2255 -55.1275 -1.30028 5.15427 -0.203095 5.50899 25.0756 -2.06659 1.56687 -12.829 0.339905 6.36111e-015 3.97569e-015 -7.95139e-016 -9.54166e-015 -7.95139e-016 -1.59028e-015 6.36111e-015 -1.59028e-015 -1.59028e-015 57.7159 -23.1182 42.1919 -12.9912 57.4763 5.94205 7.03634 15.2403 -0.480883 1.9191 -12.8383 0.332476 -4.96962e-017 -1.98785e-016 -0 1.59028e-015 1.59028e-015 3.18055e-015 -0 -1.59028e-015 -0 0 0 -0 
141.015 105.981 -12.373 -163.066 28.4606 157.512 1.59028e-015 6.36111e-015 -0 -1.01995 -4.84357 -7.32942 24.5471 -9.01895 -4.24547 1.13254 -38.5675 -45.4938 -0.391957 0.513709 -37.3285 93.719 14.2058 -24.7941 -2.98177e-016 0 -1.963e-015 7.95139e-016 0 1.78906e-015 -3.18055e-015 -3.18055e-015 -4.77083e-015 -19.2637 -35.703 5.93827 37.1198 -10.4817 49.1211 0.782016 1.29712 31.7777 -106.185 0.698407 4.91618 -3.18055e-015 0 -0 1.59028e-015 1.59028e-015 7.15625e-015 6.36111e-015 -3.18055e-015 3.18055e-015 -3.18055e-015 9.54166e-015 -0 1.97255 -24.5278 -18.7398 0.160673 15.0957 -9.98927 -3.18055e-015 9.54166e-015 -0 -5.30766 10.1657 2.97482 -55.5148 -54.9248 -58.7291 -1.28491 4.53072 -0.217038 4.85969 23.2545 -1.61719 1.58945 -13.0055 0.347192 -3.18055e-015 -3.97569e-016 -1.19271e-015 0 3.18055e-015 -0 3.18055e-015 0 -0 55.5427 -21.9203 41.1959 -12.8441 57.1716 5.82706 7.19592 15.414 -0.418783 1.91744 -12.8281 0.331659 3.97569e-016 3.97569e-016 3.18055e-015 -7.95139e-016 0 3.18055e-015 -8.82781e-032 1.59028e-015 3.18055e-015 1.59028e-015 6.36111e-015 -0 
140.07 106.263 -12.3813 -161.898 28.8191 156.662 -1.76556e-031 3.18055e-015 3.18055e-015 -0.687298 -3.95885 -7.19151 24.2294 -8.88007 -4.13741 1.46017 -39.5554 -46.7209 -0.322105 0.441787 -34.4127 92.4154 12.3034 -23.859 1.49089e-016 1.59028e-015 -3.64646e-015 -7.95139e-016 -1.59028e-015 -4.37326e-015 3.18055e-015 -3.18055e-015 -0 -19.6087 -35.9685 6.01508 37.2879 -10.5123 49.3149 0.772247 1.25435 30.9323 -106.287 0.721121 4.53468 5.51738e-033 -1.59028e-015 1.98785e-016 -1.59028e-015 -1.59028e-015 2.78299e-015 -3.18055e-015 -3.18055e-015 -3.18055e-015 6.36111e-015 0 -0 1.75805 -24.3925 -19.0264 -0.134299 15.2765 -9.8411 6.36111e-015 0 -0 -5.05156 10.5025 2.9954 -59.8656 -56.4795 -62.367 -1.31533 4.38203 -0.22363 4.34732 21.5319 -1.2323 1.61604 -13.2129 0.355865 3.18055e-015 -3.18055e-015 2.43511e-015 -6.36111e-015 -1.59028e-015 -0 3.18055e-015 0 -0 53.4944 -20.6537 40.0008 -12.6418 56.7464 5.66904 7.18032 15.641 -0.415823 1.92198 -12.86 0.33121 0 0 -0 -7.95139e-016 -1.59028e-015 -0 -3.18055e-015 -3.18055e-015 1.59028e-015 -1.76556e-031 3.18055e-015 3.18055e-015 
139.071 106.516 -12.4574 -160.585 29.2629 155.777 -1.59028e-015 3.18055e-015 -6.36111e-015 -0.331453 -2.96097 -7.06049 23.9282 -8.72423 -4.03476 1.77643 -40.5939 -48.0918 -0.244879 0.381606 -31.4256 90.895 10.4951 -23.4319 -4.96962e-017 1.59028e-015 1.88845e-015 1.76556e-031 3.18055e-015 -3.18055e-015 -3.18055e-015 -3.18055e-015 -1.59028e-015 -19.9305 -36.3744 6.09064 37.4659 -10.5399 49.2984 0.762707 1.21636 30.1822 -106.27 0.743698 4.13303 3.18055e-015 0 1.98785e-016 -1.59028e-015 -1.59028e-015 -3.97569e-016 -0 0 1.59028e-015 -1.59028e-015 -6.36111e-015 3.18055e-015 1.50858 -24.2097 -19.359 -0.412648 15.4858 -9.73626 -1.59028e-015 -6.36111e-015 3.18055e-015 -4.73522 10.8651 2.99642 -64.5142 -57.9431 -66.1055 -1.4068 4.7296 -0.224769 3.96027 19.9088 -0.875746 1.64783 -13.4602 0.366347 -0 0 3.97569e-016 4.41391e-032 1.59028e-015 -1.59028e-015 3.18055e-015 -3.18055e-015 -3.18055e-015 51.4437 -19.2956 38.6948 -12.3882 56.2005 5.47078 7.1416 15.9377 -0.419718 1.93303 -12.9359 0.331064 -3.97569e-016 0 3.18055e-015 7.95139e-016 -3.18055e-015 -0 -3.18055e-015 -3.18055e-015 3.18055e-015 -1.59028e-015 3.18055e-015 -6.36111e-015 
138.021 106.736 -12.5834 -159.129 29.7482 154.868 -3.18055e-015 0 -0 0.0424942 -1.9212 -6.93749 23.6246 -8.53415 -3.89659 2.03611 -41.5794 -49.8095 -0.155062 0.3254 -27.9108 89.3122 8.40574 -23.7786 -3.97569e-016 1.59028e-015 9.69075e-016 -3.31043e-032 -1.59028e-015 -1.19271e-015 3.18055e-015 0 3.18055e-015 -20.2288 -36.8097 6.16348 37.6262 -10.5724 49.181 0.75266 1.18101 29.5206 -106.18 0.844174 3.74079 0 0 -3.97569e-016 -0 0 7.95139e-016 -3.18055e-015 3.18055e-015 -1.59028e-015 -3.18055e-015 6.36111e-015 -0 1.22735 -23.9851 -19.7192 -0.68508 15.7212 -9.65919 -3.18055e-015 6.36111e-015 -0 -4.39929 11.1962 2.98963 -69.4631 -59.2788 -70.0755 -1.55323 5.5079 -0.218955 3.66434 18.2979 -0.560882 1.67842 -13.6978 0.376547 3.18055e-015 0 -0 6.36111e-015 1.59028e-015 -1.59028e-015 -3.18055e-015 7.95139e-015 3.18055e-015 49.4562 -17.8875 37.3234 -12.1057 55.5741 5.25148 7.09147 16.2698 -0.445351 1.94627 -13.0265 0.331113 -3.97569e-016 7.95139e-016 -0 7.95139e-016 -1.59028e-015 -6.36111e-015 -3.18055e-015 3.18055e-015 -0 -3.18055e-015 0 -0 
136.921 106.918 -12.7439 -157.533 30.2324 153.949 -1.59028e-015 6.36111e-015 -6.36111e-015 0.429759 -0.910915 -6.824 23.2995 -8.29257 -3.68196 2.22698 -42.4232 -52.2979 -0.0446329 0.26972 -22.9686 87.8367 5.44953 -24.9918 -2.96559e-032 -1.59028e-015 -1.06847e-015 -1.59028e-015 -1.59028e-015 7.15625e-015 4.77083e-015 6.36111e-015 4.77083e-015 -20.504 -37.1632 6.23119 37.7408 -10.6184 49.0849 0.741266 1.1455 28.9134 -106.057 1.0852 3.38252 2.75869e-033 7.95139e-016 -1.98785e-016 0 0 -1.19271e-015 3.18055e-015 0 -0 -3.18055e-015 0 -3.18055e-015 0.917488 -23.7229 -20.0878 -0.962451 15.9802 -9.59428 -3.18055e-015 0 -3.18055e-015 -4.08469 11.4383 2.98677 -74.7217 -60.4297 -74.4053 -1.74641 6.66118 -0.203679 3.42474 16.6069 -0.300386 1.70149 -13.8766 0.384318 6.36111e-015 7.95139e-016 -7.95139e-016 3.18055e-015 -6.36111e-015 -0 3.18055e-015 -1.59028e-015 -0 47.5899 -16.4782 35.9231 -11.8148 54.9082 5.02781 7.04006 16.6015 -0.507826 1.95737 -13.1024 0.331251 -3.97569e-016 0 -3.18055e-015 3.18055e-015 0 3.18055e-015 2.64834e-031 9.54166e-015 -1.59028e-015 -1.59028e-015 6.36111e-015 -6.36111e-015 
135.769 107.061 -12.9234 -155.807 30.6739 153.037 0 0 -0 0.825712 -0.0015069 -6.72187 22.9341 -7.98232 -3.34993 2.34146 -43.2001 -55.0708 0.0626834 0.23909 -17.6938 85.8223 2.42466 -26.8107 -1.49089e-016 0 -2.48481e-017 -7.95139e-016 0 1.39149e-015 -1.59028e-015 -6.36111e-015 -1.59028e-015 -20.757 -37.3242 6.29057 37.7804 -10.6878 49.1499 0.727284 1.10601 28.2882 -105.935 1.50857 3.07636 3.18055e-015 0 3.97569e-016 1.59028e-015 0 3.18055e-015 -3.18055e-015 0 -0 -1.76556e-031 -3.18055e-015 -3.18055e-015 0.582239 -23.4294 -20.4464 -1.23595 16.2845 -9.55807 -1.76556e-031 -3.18055e-015 -3.18055e-015 -3.77633 11.5804 2.98375 -80.2609 -61.3139 -79.1781 -1.97397 8.12016 -0.177414 3.20422 14.7489 -0.105826 1.71065 -13.9472 0.387551 3.18055e-015 1.59028e-015 1.59028e-015 6.36111e-015 -4.77083e-015 3.18055e-015 0 4.77083e-015 -0 45.8934 -15.1249 34.5223 -11.534 54.2446 4.81428 6.99785 16.8964 -0.622316 1.96204 -13.1342 0.331369 -3.97569e-016 3.18055e-015 3.18055e-015 1.98785e-015 0 3.18055e-015 6.36111e-015 0 -1.59028e-015 0 0 -0 
134.547 107.123 -13.1342 -153.925 31.0894 152.137 4.77083e-015 6.36111e-015 3.18055e-015 1.33441 0.885854 -6.65744 22.5329 -7.56464 -2.847 2.11658 -44.363 -54.9687 0.0907667 0.253818 -18.8097 81.8639 3.32772 -28.4294 -1.98785e-016 1.59028e-015 -4.96962e-017 7.95139e-016 0 5.96354e-016 0 0 -6.36111e-015 -20.9538 -37.2336 6.34323 37.7616 -10.8534 49.3706 0.707357 1.05408 27.5117 -105.807 1.82015 2.73803 -2.75869e-033 -7.95139e-016 -1.98785e-016 -0 0 1.59028e-015 3.18055e-015 0 -0 -1.59028e-015 1.27222e-014 -0 0.239714 -23.0704 -20.7804 -1.50312 16.6279 -9.55231 -1.59028e-015 1.27222e-014 -0 -3.46102 11.6519 2.97665 -86.0931 -61.894 -84.4195 -2.24736 10.0083 -0.13694 2.99875 12.668 -0.12878 1.71039 -13.9356 0.389154 -9.54166e-015 0 -3.18055e-015 0 0 -0 3.53113e-031 3.18055e-015 -6.36111e-015 44.4047 -13.8137 33.0747 -11.26 53.5762 4.60725 7.00075 17.1512 -0.897649 1.95519 -13.0874 0.331351 -3.97569e-016 -1.59028e-015 -3.18055e-015 3.97569e-016 -1.59028e-015 6.36111e-015 -1.76556e-031 -6.36111e-015 -1.59028e-015 4.77083e-015 6.36111e-015 3.18055e-015 
133.252 107.08 -13.3868 -151.883 31.5066 151.241 -3.18055e-015 -9.54166e-015 -3.18055e-015 2.04474 1.84705 -6.65033 22.1084 -7.05103 -2.20014 1.68785 -45.5572 -55.3817 0.147726 0.254662 -18.9308 78.1393 3.47659 -29.7606 -3.97569e-016 -3.18055e-015 3.97569e-016 -3.97569e-016 0 1.59028e-015 3.18055e-015 3.18055e-015 1.59028e-015 -21.0923 -36.9709 6.3926 37.7167 -11.1305 49.6534 0.691145 0.988513 26.6049 -105.663 1.87197 2.32938 0 0 -0 1.59028e-015 -3.18055e-015 -3.57812e-015 9.54166e-015 -3.18055e-015 6.36111e-015 -1.76556e-031 3.18055e-015 3.18055e-015 -0.108859 -22.6352 -21.101 -1.78509 16.9662 -9.53881 -1.76556e-031 3.18055e-015 3.18055e-015 -3.18279 11.6551 2.97745 -92.1198 -62.1606 -89.9367 -2.55813 12.3451 -0.0801114 2.77157 10.4286 -0.464073 1.7062 -13.9078 0.389593 -1.59028e-014 -4.77083e-015 1.59028e-015 2.64834e-031 4.77083e-015 -3.18055e-015 -1.76556e-031 -1.59028e-015 -6.36111e-015 43.0947 -12.5003 31.5536 -10.9813 52.8745 4.39729 7.06966 17.3934 -1.35868 1.93883 -12.9755 0.331147 3.97569e-016 -3.18055e-015 -0 -1.59028e-015 0 -3.18055e-015 6.36111e-015 -9.54166e-015 -3.18055e-015 -3.18055e-015 -9.54166e-015 -3.18055e-015 
